<svg width="18" height="18" viewBox="0 0 18 18" fill="none" xmlns="http://www.w3.org/2000/svg">
<g id="Checkbox/Selected/Active/Rounded-edge">
<rect id="Rectangle 1" x="0.5" y="0.5" width="17" height="17" rx="1.5" fill="white" stroke="black"/>
<path id="Vector" d="M10.0567 8.49936L14.7783 3.78477C14.9194 3.64363 14.9987 3.45221 14.9987 3.2526C14.9987 3.053 14.9194 2.86157 14.7783 2.72043C14.6372 2.57929 14.4458 2.5 14.2462 2.5C14.0466 2.5 13.8552 2.57929 13.7141 2.72043L9 7.44251L4.28592 2.72043C4.14479 2.57929 3.95338 2.5 3.7538 2.5C3.55422 2.5 3.36281 2.57929 3.22169 2.72043C3.08056 2.86157 3.00128 3.053 3.00128 3.2526C3.00128 3.45221 3.08056 3.64363 3.22169 3.78477L7.94327 8.49936L3.22169 13.2139C3.15144 13.2836 3.09569 13.3665 3.05764 13.4579C3.01959 13.5492 3 13.6472 3 13.7461C3 13.8451 3.01959 13.943 3.05764 14.0344C3.09569 14.1257 3.15144 14.2086 3.22169 14.2783C3.29136 14.3485 3.37425 14.4043 3.46558 14.4424C3.55691 14.4804 3.65487 14.5 3.7538 14.5C3.85274 14.5 3.9507 14.4804 4.04203 14.4424C4.13335 14.4043 4.21625 14.3485 4.28592 14.2783L9 9.55621L13.7141 14.2783C13.7838 14.3485 13.8666 14.4043 13.958 14.4424C14.0493 14.4804 14.1473 14.5 14.2462 14.5C14.3451 14.5 14.4431 14.4804 14.5344 14.4424C14.6257 14.4043 14.7086 14.3485 14.7783 14.2783C14.8486 14.2086 14.9043 14.1257 14.9424 14.0344C14.9804 13.943 15 13.8451 15 13.7461C15 13.6472 14.9804 13.5492 14.9424 13.4579C14.9043 13.3665 14.8486 13.2836 14.7783 13.2139L10.0567 8.49936Z" fill="black"/>
</g>
</svg>
